<svg width="94" height="14" viewBox="0 0 94 14" fill="none" xmlns="http://www.w3.org/2000/svg">
<g clip-path="url(#clip0_456802_58)">
<path d="M13.6962 6.37211C13.9717 6.10355 14.069 5.7094 13.9501 5.343C13.831 4.9766 13.5207 4.71504 13.1394 4.65954L9.74959 4.16699C9.60521 4.14596 9.48046 4.05541 9.41599 3.9245L7.90049 0.853131C7.73032 0.508036 7.38495 0.293579 7.00005 0.293579C6.61542 0.293579 6.27005 0.508036 6.09989 0.853131L4.58411 3.92478C4.51963 4.05569 4.3946 4.14624 4.25023 4.16727L0.860399 4.65982C0.479422 4.71504 0.168809 4.97688 0.0496662 5.34328C-0.0691964 5.70968 0.0280803 6.10383 0.303651 6.37239L2.75631 8.7631C2.86088 8.86514 2.90882 9.01204 2.88415 9.15557L2.30553 12.5314C2.25423 12.8285 2.33217 13.1176 2.52448 13.3455C2.82331 13.7007 3.34502 13.8089 3.76216 13.5897L6.79372 11.9957C6.92043 11.9292 7.07994 11.9298 7.20637 11.9957L10.2382 13.5897C10.3857 13.6673 10.5429 13.7066 10.7053 13.7066C11.0016 13.7066 11.2825 13.5748 11.4756 13.3455C11.6682 13.1176 11.7459 12.828 11.6946 12.5314L11.1157 9.15557C11.091 9.01176 11.1389 8.86514 11.2435 8.7631L13.6962 6.37211Z" fill="#F0BF5F"/>
</g>
<g clip-path="url(#clip1_456802_58)">
<path d="M33.6962 6.37211C33.9717 6.10355 34.069 5.7094 33.9501 5.343C33.831 4.9766 33.5207 4.71504 33.1394 4.65954L29.7496 4.16699C29.6052 4.14596 29.4805 4.05541 29.416 3.9245L27.9005 0.853131C27.7303 0.508036 27.3849 0.293579 27 0.293579C26.6154 0.293579 26.2701 0.508036 26.0999 0.853131L24.5841 3.92478C24.5196 4.05569 24.3946 4.14624 24.2502 4.16727L20.8604 4.65982C20.4794 4.71504 20.1688 4.97688 20.0497 5.34328C19.9308 5.70968 20.0281 6.10383 20.3037 6.37239L22.7563 8.7631C22.8609 8.86514 22.9088 9.01204 22.8841 9.15557L22.3055 12.5314C22.2542 12.8285 22.3322 13.1176 22.5245 13.3455C22.8233 13.7007 23.345 13.8089 23.7622 13.5897L26.7937 11.9957C26.9204 11.9292 27.0799 11.9298 27.2064 11.9957L30.2382 13.5897C30.3857 13.6673 30.5429 13.7066 30.7053 13.7066C31.0016 13.7066 31.2825 13.5748 31.4756 13.3455C31.6682 13.1176 31.7459 12.828 31.6946 12.5314L31.1157 9.15557C31.091 9.01176 31.1389 8.86514 31.2435 8.7631L33.6962 6.37211Z" fill="#F0BF5F"/>
</g>
<g clip-path="url(#clip2_456802_58)">
<path d="M53.6962 6.37211C53.9717 6.10355 54.069 5.7094 53.9501 5.343C53.831 4.9766 53.5207 4.71504 53.1394 4.65954L49.7496 4.16699C49.6052 4.14596 49.4805 4.05541 49.416 3.9245L47.9005 0.853131C47.7303 0.508036 47.3849 0.293579 47 0.293579C46.6154 0.293579 46.2701 0.508036 46.0999 0.853131L44.5841 3.92478C44.5196 4.05569 44.3946 4.14624 44.2502 4.16727L40.8604 4.65982C40.4794 4.71504 40.1688 4.97688 40.0497 5.34328C39.9308 5.70968 40.0281 6.10383 40.3037 6.37239L42.7563 8.7631C42.8609 8.86514 42.9088 9.01204 42.8841 9.15557L42.3055 12.5314C42.2542 12.8285 42.3322 13.1176 42.5245 13.3455C42.8233 13.7007 43.345 13.8089 43.7622 13.5897L46.7937 11.9957C46.9204 11.9292 47.0799 11.9298 47.2064 11.9957L50.2382 13.5897C50.3857 13.6673 50.5429 13.7066 50.7053 13.7066C51.0016 13.7066 51.2825 13.5748 51.4756 13.3455C51.6682 13.1176 51.7459 12.828 51.6946 12.5314L51.1157 9.15557C51.091 9.01176 51.1389 8.86514 51.2435 8.7631L53.6962 6.37211Z" fill="#F0BF5F"/>
</g>
<g clip-path="url(#clip3_456802_58)">
<path d="M73.6962 6.37211C73.9717 6.10355 74.069 5.7094 73.9501 5.343C73.831 4.9766 73.5207 4.71504 73.1394 4.65954L69.7496 4.16699C69.6052 4.14596 69.4805 4.05541 69.416 3.9245L67.9005 0.853131C67.7303 0.508036 67.3849 0.293579 67 0.293579C66.6154 0.293579 66.27 0.508036 66.0999 0.853131L64.5841 3.92478C64.5196 4.05569 64.3946 4.14624 64.2502 4.16727L60.8604 4.65982C60.4794 4.71504 60.1688 4.97688 60.0497 5.34328C59.9308 5.70968 60.0281 6.10383 60.3036 6.37239L62.7563 8.7631C62.8609 8.86514 62.9088 9.01204 62.8841 9.15557L62.3055 12.5314C62.2542 12.8285 62.3322 13.1176 62.5245 13.3455C62.8233 13.7007 63.345 13.8089 63.7622 13.5897L66.7937 11.9957C66.9204 11.9292 67.0799 11.9298 67.2064 11.9957L70.2382 13.5897C70.3857 13.6673 70.5429 13.7066 70.7052 13.7066C71.0016 13.7066 71.2825 13.5748 71.4756 13.3455C71.6682 13.1176 71.7459 12.828 71.6946 12.5314L71.1157 9.15557C71.091 9.01176 71.1389 8.86514 71.2435 8.7631L73.6962 6.37211Z" fill="#F0BF5F"/>
</g>
<g clip-path="url(#clip4_456802_58)">
<path d="M93.6962 6.37211C93.9717 6.10355 94.069 5.7094 93.9501 5.343C93.831 4.9766 93.5207 4.71504 93.1394 4.65954L89.7496 4.16699C89.6052 4.14596 89.4805 4.05541 89.416 3.9245L87.9005 0.853131C87.7303 0.508036 87.3849 0.293579 87 0.293579C86.6154 0.293579 86.27 0.508036 86.0999 0.853131L84.5841 3.92478C84.5196 4.05569 84.3946 4.14624 84.2502 4.16727L80.8604 4.65982C80.4794 4.71504 80.1688 4.97688 80.0497 5.34328C79.9308 5.70968 80.0281 6.10383 80.3036 6.37239L82.7563 8.7631C82.8609 8.86514 82.9088 9.01204 82.8841 9.15557L82.3055 12.5314C82.2542 12.8285 82.3322 13.1176 82.5245 13.3455C82.8233 13.7007 83.345 13.8089 83.7622 13.5897L86.7937 11.9957C86.9204 11.9292 87.0799 11.9298 87.2064 11.9957L90.2382 13.5897C90.3857 13.6673 90.5429 13.7066 90.7052 13.7066C91.0016 13.7066 91.2825 13.5748 91.4756 13.3455C91.6682 13.1176 91.7459 12.828 91.6946 12.5314L91.1157 9.15557C91.091 9.01176 91.1389 8.86514 91.2435 8.7631L93.6962 6.37211Z" fill="#F0BF5F"/>
</g>
<defs>
<clipPath id="clip0_456802_58">
<rect width="14" height="14" fill="white"/>
</clipPath>
<clipPath id="clip1_456802_58">
<rect width="14" height="14" fill="white" transform="translate(20)"/>
</clipPath>
<clipPath id="clip2_456802_58">
<rect width="14" height="14" fill="white" transform="translate(40)"/>
</clipPath>
<clipPath id="clip3_456802_58">
<rect width="14" height="14" fill="white" transform="translate(60)"/>
</clipPath>
<clipPath id="clip4_456802_58">
<rect width="14" height="14" fill="white" transform="translate(80)"/>
</clipPath>
</defs>
</svg>
